<svg viewBox="0 0 480 44" fill="none" xmlns="http://www.w3.org/2000/svg">
<path d="M63.4787 16.348C63.3764 15.3168 62.9375 14.5156 62.1619 13.9446C61.3864 13.3736 60.3338 13.0881 59.0043 13.0881C58.1009 13.0881 57.3381 13.2159 56.7159 13.4716C56.0938 13.7187 55.6165 14.0639 55.2841 14.5071C54.9602 14.9503 54.7983 15.4531 54.7983 16.0156C54.7813 16.4844 54.8793 16.8935 55.0923 17.2429C55.3139 17.5923 55.6165 17.8949 56 18.1506C56.3835 18.3977 56.8267 18.6151 57.3295 18.8026C57.8324 18.9815 58.3693 19.1349 58.9403 19.2628L61.2926 19.8253C62.4347 20.081 63.483 20.4219 64.4375 20.848C65.392 21.2741 66.2188 21.7983 66.9176 22.4205C67.6165 23.0426 68.1577 23.7756 68.5412 24.6193C68.9332 25.4631 69.1335 26.4304 69.142 27.5213C69.1335 29.1236 68.7244 30.5128 67.9148 31.6889C67.1136 32.8565 65.9545 33.7642 64.4375 34.4119C62.929 35.0511 61.1094 35.3707 58.9787 35.3707C56.8651 35.3707 55.0241 35.0469 53.456 34.3991C51.8963 33.7514 50.6776 32.7926 49.7997 31.5227C48.9304 30.2443 48.4744 28.6634 48.4318 26.7798H53.7884C53.848 27.6577 54.0994 28.3906 54.5426 28.9787C54.9943 29.5582 55.5952 29.9972 56.3452 30.2955C57.1037 30.5852 57.9602 30.7301 58.9148 30.7301C59.8523 30.7301 60.6662 30.5937 61.3565 30.321C62.0554 30.0483 62.5966 29.669 62.9801 29.1832C63.3636 28.6974 63.5554 28.1392 63.5554 27.5085C63.5554 26.9205 63.3807 26.4261 63.0312 26.0256C62.6903 25.625 62.1875 25.2841 61.5227 25.0028C60.8665 24.7216 60.0611 24.4659 59.1065 24.2358L56.2557 23.5199C54.0483 22.983 52.3054 22.1435 51.027 21.0014C49.7486 19.8594 49.1136 18.321 49.1222 16.3864C49.1136 14.8011 49.5355 13.4162 50.3878 12.2315C51.2486 11.0469 52.429 10.1222 53.929 9.45739C55.429 8.79261 57.1335 8.46023 59.0426 8.46023C60.9858 8.46023 62.6818 8.79261 64.1307 9.45739C65.5881 10.1222 66.7216 11.0469 67.5312 12.2315C68.3409 13.4162 68.7585 14.7884 68.7841 16.348H63.4787ZM72.7631 35V15.3636H78.2092V35H72.7631ZM75.4989 12.8324C74.6893 12.8324 73.9947 12.5639 73.4151 12.027C72.8441 11.4815 72.5586 10.8295 72.5586 10.071C72.5586 9.32102 72.8441 8.67756 73.4151 8.14062C73.9947 7.59517 74.6893 7.32244 75.4989 7.32244C76.3086 7.32244 76.9989 7.59517 77.57 8.14062C78.1495 8.67756 78.4393 9.32102 78.4393 10.071C78.4393 10.8295 78.1495 11.4815 77.57 12.027C76.9989 12.5639 76.3086 12.8324 75.4989 12.8324ZM88.0178 23.6477V35H82.5717V15.3636H87.7621V18.8281H87.9922C88.4268 17.6861 89.1555 16.7827 90.1783 16.1179C91.201 15.4446 92.4411 15.108 93.8984 15.108C95.2621 15.108 96.451 15.4062 97.4652 16.0028C98.4794 16.5994 99.2678 17.4517 99.8303 18.5597C100.393 19.6591 100.674 20.9716 100.674 22.4972V35H95.228V23.4688C95.2365 22.267 94.9297 21.3295 94.3075 20.6562C93.6854 19.9744 92.8288 19.6335 91.7379 19.6335C91.005 19.6335 90.3572 19.7912 89.7947 20.1065C89.2408 20.4219 88.8061 20.8821 88.4908 21.4872C88.1839 22.0838 88.0263 22.804 88.0178 23.6477ZM113.813 42.7727C112.049 42.7727 110.536 42.5298 109.275 42.044C108.022 41.5668 107.025 40.9148 106.283 40.0881C105.542 39.2614 105.06 38.3324 104.838 37.3011L109.875 36.6236C110.029 37.0156 110.272 37.3821 110.604 37.723C110.936 38.0639 111.375 38.3366 111.921 38.5412C112.475 38.7543 113.148 38.8608 113.941 38.8608C115.125 38.8608 116.101 38.571 116.868 37.9915C117.644 37.4205 118.032 36.4616 118.032 35.1151V31.5227H117.801C117.563 32.0682 117.205 32.5838 116.728 33.0696C116.25 33.5554 115.637 33.9517 114.887 34.2585C114.137 34.5653 113.242 34.7188 112.202 34.7188C110.728 34.7188 109.385 34.3778 108.175 33.696C106.973 33.0057 106.015 31.9531 105.299 30.5384C104.591 29.1151 104.238 27.3168 104.238 25.1435C104.238 22.919 104.6 21.0611 105.324 19.5696C106.049 18.0781 107.012 16.9616 108.213 16.2202C109.424 15.4787 110.749 15.108 112.189 15.108C113.289 15.108 114.209 15.2955 114.951 15.6705C115.692 16.0369 116.289 16.4972 116.74 17.0511C117.201 17.5966 117.554 18.1335 117.801 18.6619H118.006V15.3636H123.414V35.1918C123.414 36.8622 123.005 38.2599 122.186 39.3849C121.368 40.5099 120.235 41.3537 118.786 41.9162C117.346 42.4872 115.688 42.7727 113.813 42.7727ZM113.928 30.6278C114.806 30.6278 115.547 30.4105 116.152 29.9759C116.766 29.5327 117.235 28.902 117.559 28.0838C117.891 27.2571 118.057 26.2685 118.057 25.1179C118.057 23.9673 117.895 22.9702 117.571 22.1264C117.248 21.2741 116.779 20.6136 116.165 20.1449C115.551 19.6761 114.806 19.4418 113.928 19.4418C113.033 19.4418 112.279 19.6847 111.665 20.1705C111.051 20.6477 110.587 21.3125 110.272 22.1648C109.956 23.017 109.799 24.0014 109.799 25.1179C109.799 26.2514 109.956 27.2315 110.272 28.0582C110.596 28.8764 111.06 29.5114 111.665 29.9631C112.279 30.4062 113.033 30.6278 113.928 30.6278ZM133.194 8.81818V35H127.748V8.81818H133.194ZM146.505 35.3835C144.485 35.3835 142.746 34.9744 141.289 34.1562C139.84 33.3295 138.724 32.1619 137.94 30.6534C137.156 29.1364 136.763 27.3423 136.763 25.2713C136.763 23.2514 137.156 21.4787 137.94 19.9531C138.724 18.4276 139.827 17.2386 141.251 16.3864C142.683 15.5341 144.362 15.108 146.288 15.108C147.583 15.108 148.789 15.3168 149.906 15.7344C151.031 16.1435 152.011 16.7614 152.846 17.5881C153.69 18.4148 154.346 19.4545 154.815 20.7074C155.283 21.9517 155.518 23.4091 155.518 25.0795V26.5753H138.937V23.2003H150.391C150.391 22.4162 150.221 21.7216 149.88 21.1165C149.539 20.5114 149.066 20.0384 148.461 19.6974C147.864 19.348 147.17 19.1733 146.377 19.1733C145.55 19.1733 144.817 19.3651 144.178 19.7486C143.548 20.1236 143.053 20.6307 142.695 21.2699C142.337 21.9006 142.154 22.6037 142.146 23.3793V26.5881C142.146 27.5597 142.325 28.3991 142.683 29.1065C143.049 29.8139 143.565 30.3594 144.229 30.7429C144.894 31.1264 145.683 31.3182 146.594 31.3182C147.2 31.3182 147.754 31.233 148.256 31.0625C148.759 30.892 149.19 30.6364 149.548 30.2955C149.906 29.9545 150.178 29.5369 150.366 29.0426L155.403 29.375C155.147 30.5852 154.623 31.642 153.83 32.5455C153.046 33.4403 152.032 34.1392 150.788 34.642C149.552 35.1364 148.124 35.3835 146.505 35.3835ZM173.377 16.348C173.275 15.3168 172.836 14.5156 172.06 13.9446C171.285 13.3736 170.232 13.0881 168.903 13.0881C167.999 13.0881 167.237 13.2159 166.614 13.4716C165.992 13.7187 165.515 14.0639 165.183 14.5071C164.859 14.9503 164.697 15.4531 164.697 16.0156C164.68 16.4844 164.778 16.8935 164.991 17.2429C165.212 17.5923 165.515 17.8949 165.898 18.1506C166.282 18.3977 166.725 18.6151 167.228 18.8026C167.731 18.9815 168.268 19.1349 168.839 19.2628L171.191 19.8253C172.333 20.081 173.381 20.4219 174.336 20.848C175.29 21.2741 176.117 21.7983 176.816 22.4205C177.515 23.0426 178.056 23.7756 178.44 24.6193C178.832 25.4631 179.032 26.4304 179.04 27.5213C179.032 29.1236 178.623 30.5128 177.813 31.6889C177.012 32.8565 175.853 33.7642 174.336 34.4119C172.827 35.0511 171.008 35.3707 168.877 35.3707C166.763 35.3707 164.923 35.0469 163.354 34.3991C161.795 33.7514 160.576 32.7926 159.698 31.5227C158.829 30.2443 158.373 28.6634 158.33 26.7798H163.687C163.746 27.6577 163.998 28.3906 164.441 28.9787C164.893 29.5582 165.494 29.9972 166.244 30.2955C167.002 30.5852 167.859 30.7301 168.813 30.7301C169.751 30.7301 170.565 30.5937 171.255 30.321C171.954 30.0483 172.495 29.669 172.879 29.1832C173.262 28.6974 173.454 28.1392 173.454 27.5085C173.454 26.9205 173.279 26.4261 172.93 26.0256C172.589 25.625 172.086 25.2841 171.421 25.0028C170.765 24.7216 169.96 24.4659 169.005 24.2358L166.154 23.5199C163.947 22.983 162.204 22.1435 160.925 21.0014C159.647 19.8594 159.012 18.321 159.021 16.3864C159.012 14.8011 159.434 13.4162 160.286 12.2315C161.147 11.0469 162.327 10.1222 163.827 9.45739C165.327 8.79261 167.032 8.46023 168.941 8.46023C170.884 8.46023 172.58 8.79261 174.029 9.45739C175.487 10.1222 176.62 11.0469 177.43 12.2315C178.239 13.4162 178.657 14.7884 178.683 16.348H173.377ZM193.106 15.3636V19.4545H181.281V15.3636H193.106ZM183.966 10.6591H189.412V28.9659C189.412 29.4687 189.488 29.8608 189.642 30.142C189.795 30.4148 190.008 30.6065 190.281 30.7173C190.562 30.8281 190.886 30.8835 191.252 30.8835C191.508 30.8835 191.764 30.8622 192.02 30.8196C192.275 30.7685 192.471 30.7301 192.608 30.7045L193.464 34.7571C193.191 34.8423 192.808 34.9403 192.314 35.0511C191.819 35.1705 191.218 35.2429 190.511 35.2685C189.199 35.3196 188.048 35.1449 187.059 34.7443C186.079 34.3437 185.316 33.7216 184.771 32.8778C184.225 32.0341 183.957 30.9687 183.966 29.6818V10.6591ZM205.315 35.3835C203.329 35.3835 201.612 34.9616 200.163 34.1179C198.723 33.2656 197.61 32.081 196.826 30.5639C196.042 29.0384 195.65 27.2699 195.65 25.2585C195.65 23.2301 196.042 21.4574 196.826 19.9403C197.61 18.4148 198.723 17.2301 200.163 16.3864C201.612 15.5341 203.329 15.108 205.315 15.108C207.301 15.108 209.014 15.5341 210.454 16.3864C211.903 17.2301 213.02 18.4148 213.804 19.9403C214.588 21.4574 214.98 23.2301 214.98 25.2585C214.98 27.2699 214.588 29.0384 213.804 30.5639C213.02 32.081 211.903 33.2656 210.454 34.1179C209.014 34.9616 207.301 35.3835 205.315 35.3835ZM205.341 31.1648C206.244 31.1648 206.998 30.9091 207.603 30.3977C208.208 29.8778 208.664 29.1705 208.971 28.2756C209.287 27.3807 209.444 26.3622 209.444 25.2202C209.444 24.0781 209.287 23.0597 208.971 22.1648C208.664 21.2699 208.208 20.5625 207.603 20.0426C206.998 19.5227 206.244 19.2628 205.341 19.2628C204.429 19.2628 203.662 19.5227 203.039 20.0426C202.426 20.5625 201.961 21.2699 201.646 22.1648C201.339 23.0597 201.186 24.0781 201.186 25.2202C201.186 26.3622 201.339 27.3807 201.646 28.2756C201.961 29.1705 202.426 29.8778 203.039 30.3977C203.662 30.9091 204.429 31.1648 205.341 31.1648ZM218.521 35V15.3636H223.801V18.7898H224.005C224.363 17.571 224.964 16.6506 225.808 16.0284C226.652 15.3977 227.623 15.0824 228.723 15.0824C228.995 15.0824 229.289 15.0994 229.605 15.1335C229.92 15.1676 230.197 15.2145 230.436 15.2741V20.1065C230.18 20.0298 229.826 19.9616 229.375 19.902C228.923 19.8423 228.51 19.8125 228.135 19.8125C227.333 19.8125 226.618 19.9872 225.987 20.3366C225.365 20.6776 224.87 21.1548 224.504 21.7685C224.146 22.3821 223.967 23.0895 223.967 23.8906V35H218.521ZM241.286 35.3835C239.266 35.3835 237.528 34.9744 236.07 34.1562C234.621 33.3295 233.505 32.1619 232.721 30.6534C231.937 29.1364 231.545 27.3423 231.545 25.2713C231.545 23.2514 231.937 21.4787 232.721 19.9531C233.505 18.4276 234.609 17.2386 236.032 16.3864C237.464 15.5341 239.143 15.108 241.069 15.108C242.364 15.108 243.57 15.3168 244.687 15.7344C245.812 16.1435 246.792 16.7614 247.627 17.5881C248.471 18.4148 249.127 19.4545 249.596 20.7074C250.065 21.9517 250.299 23.4091 250.299 25.0795V26.5753H233.718V23.2003H245.173C245.173 22.4162 245.002 21.7216 244.661 21.1165C244.32 20.5114 243.847 20.0384 243.242 19.6974C242.646 19.348 241.951 19.1733 241.158 19.1733C240.332 19.1733 239.599 19.3651 238.96 19.7486C238.329 20.1236 237.835 20.6307 237.477 21.2699C237.119 21.9006 236.935 22.6037 236.927 23.3793V26.5881C236.927 27.5597 237.106 28.3991 237.464 29.1065C237.83 29.8139 238.346 30.3594 239.011 30.7429C239.675 31.1264 240.464 31.3182 241.376 31.3182C241.981 31.3182 242.535 31.233 243.038 31.0625C243.54 30.892 243.971 30.6364 244.329 30.2955C244.687 29.9545 244.96 29.5369 245.147 29.0426L250.184 29.375C249.928 30.5852 249.404 31.642 248.612 32.5455C247.827 33.4403 246.813 34.1392 245.569 34.642C244.333 35.1364 242.906 35.3835 241.286 35.3835ZM262.287 35V8.81818H267.823V20.3622H268.168L277.59 8.81818H284.225L274.509 20.5412L284.34 35H277.718L270.546 24.2358L267.823 27.5597V35H262.287ZM292.605 35.3707C291.352 35.3707 290.235 35.1534 289.255 34.7188C288.275 34.2756 287.5 33.6236 286.929 32.7628C286.366 31.8935 286.085 30.8111 286.085 29.5156C286.085 28.4247 286.285 27.5085 286.686 26.767C287.086 26.0256 287.632 25.429 288.322 24.9773C289.012 24.5256 289.797 24.1847 290.674 23.9545C291.561 23.7244 292.49 23.5625 293.461 23.4688C294.603 23.3494 295.524 23.2386 296.223 23.1364C296.922 23.0256 297.429 22.8636 297.744 22.6506C298.059 22.4375 298.217 22.1222 298.217 21.7045V21.6278C298.217 20.8182 297.961 20.1918 297.45 19.7486C296.947 19.3054 296.231 19.0838 295.302 19.0838C294.322 19.0838 293.542 19.3011 292.963 19.7358C292.383 20.1619 292 20.6989 291.812 21.3466L286.775 20.9375C287.031 19.7443 287.534 18.7131 288.284 17.8438C289.034 16.9659 290.001 16.2926 291.186 15.8239C292.379 15.3466 293.76 15.108 295.328 15.108C296.419 15.108 297.463 15.2358 298.46 15.4915C299.466 15.7472 300.356 16.1435 301.132 16.6804C301.916 17.2173 302.534 17.9077 302.985 18.7514C303.437 19.5866 303.663 20.5881 303.663 21.7557V35H298.498V32.277H298.345C298.029 32.8906 297.608 33.4318 297.079 33.9006C296.551 34.3608 295.916 34.723 295.174 34.9872C294.433 35.2429 293.576 35.3707 292.605 35.3707ZM294.164 31.6122C294.966 31.6122 295.673 31.4545 296.287 31.1392C296.9 30.8153 297.382 30.3807 297.731 29.8352C298.081 29.2898 298.255 28.6719 298.255 27.9815V25.8977C298.085 26.0085 297.85 26.1108 297.552 26.2045C297.262 26.2898 296.934 26.3707 296.568 26.4474C296.201 26.5156 295.835 26.5795 295.468 26.6392C295.102 26.6903 294.77 26.7372 294.471 26.7798C293.832 26.8736 293.274 27.0227 292.797 27.2273C292.319 27.4318 291.949 27.7088 291.684 28.0582C291.42 28.3991 291.288 28.8253 291.288 29.3366C291.288 30.0781 291.556 30.6449 292.093 31.0369C292.639 31.4205 293.329 31.6122 294.164 31.6122ZM307.888 35V15.3636H313.334V35H307.888ZM310.624 12.8324C309.814 12.8324 309.12 12.5639 308.54 12.027C307.969 11.4815 307.684 10.8295 307.684 10.071C307.684 9.32102 307.969 8.67756 308.54 8.14062C309.12 7.59517 309.814 7.32244 310.624 7.32244C311.434 7.32244 312.124 7.59517 312.695 8.14062C313.275 8.67756 313.564 9.32102 313.564 10.071C313.564 10.8295 313.275 11.4815 312.695 12.027C312.124 12.5639 311.434 12.8324 310.624 12.8324ZM331.184 18.2273L327.425 8.81818H329.509L331.849 15.0312L334.175 8.81818H336.259L332.513 18.2273H331.184ZM326.697 18.2273V8.81818H329.062V18.2273H326.697ZM334.623 18.2273V8.81818H337.001V18.2273H334.623ZM319.819 18.2273V9.63636H322.197V18.2273H319.819ZM316.955 10.7741V8.81818H325.06V10.7741H316.955ZM354.112 0.380681V43.4375H351.555V0.380681H354.112ZM379.85 35.4091C377.958 35.4091 376.326 34.9915 374.953 34.1562C373.59 33.3125 372.537 32.1364 371.796 30.6278C371.063 29.1108 370.696 27.3466 370.696 25.3352C370.696 23.3239 371.063 21.5511 371.796 20.017C372.537 18.4744 373.569 17.2727 374.89 16.4119C376.219 15.5426 377.77 15.108 379.543 15.108C380.566 15.108 381.576 15.2784 382.573 15.6193C383.57 15.9602 384.478 16.5142 385.296 17.2812C386.114 18.0398 386.766 19.0455 387.252 20.2983C387.738 21.5511 387.98 23.0937 387.98 24.9261V26.2045H372.844V23.5966H384.912C384.912 22.4886 384.691 21.5 384.248 20.6307C383.813 19.7614 383.191 19.0753 382.381 18.5724C381.58 18.0696 380.634 17.8182 379.543 17.8182C378.341 17.8182 377.301 18.1165 376.424 18.7131C375.554 19.3011 374.885 20.0682 374.417 21.0142C373.948 21.9602 373.713 22.9744 373.713 24.0568V25.7955C373.713 27.2784 373.969 28.5355 374.48 29.5668C375 30.5895 375.721 31.3693 376.641 31.9062C377.561 32.4347 378.631 32.6989 379.85 32.6989C380.642 32.6989 381.358 32.5881 381.998 32.3665C382.645 32.1364 383.203 31.7955 383.672 31.3438C384.141 30.8835 384.503 30.3125 384.759 29.6307L387.674 30.4489C387.367 31.4375 386.851 32.3068 386.127 33.0568C385.402 33.7983 384.507 34.3778 383.442 34.7955C382.377 35.2045 381.179 35.4091 379.85 35.4091ZM407.297 15.3636C407.144 14.0682 406.522 13.0625 405.431 12.3466C404.34 11.6307 403.002 11.2727 401.417 11.2727C400.257 11.2727 399.243 11.4602 398.374 11.8352C397.513 12.2102 396.84 12.7259 396.354 13.3821C395.877 14.0384 395.638 14.7841 395.638 15.6193C395.638 16.3182 395.804 16.919 396.137 17.4219C396.478 17.9162 396.912 18.3295 397.441 18.6619C397.969 18.9858 398.523 19.2543 399.103 19.4673C399.682 19.6719 400.215 19.8381 400.701 19.9659L403.36 20.6818C404.042 20.8608 404.8 21.108 405.635 21.4233C406.479 21.7386 407.284 22.169 408.051 22.7145C408.827 23.2514 409.466 23.9418 409.969 24.7855C410.472 25.6293 410.723 26.6648 410.723 27.892C410.723 29.3068 410.353 30.5852 409.611 31.7273C408.878 32.8693 407.804 33.777 406.39 34.4503C404.983 35.1236 403.275 35.4602 401.263 35.4602C399.388 35.4602 397.765 35.1577 396.392 34.5526C395.029 33.9474 393.955 33.1037 393.171 32.0213C392.395 30.9389 391.956 29.6818 391.854 28.25H395.127C395.212 29.2386 395.544 30.0568 396.124 30.7045C396.712 31.3437 397.453 31.821 398.348 32.1364C399.252 32.4432 400.223 32.5966 401.263 32.5966C402.473 32.5966 403.56 32.4006 404.523 32.0085C405.486 31.608 406.249 31.054 406.811 30.3466C407.374 29.6307 407.655 28.7955 407.655 27.8409C407.655 26.9716 407.412 26.2642 406.926 25.7188C406.441 25.1733 405.801 24.7301 405.009 24.3892C404.216 24.0483 403.36 23.75 402.439 23.4943L399.218 22.5739C397.172 21.9858 395.553 21.1463 394.36 20.0554C393.167 18.9645 392.57 17.5369 392.57 15.7727C392.57 14.3068 392.966 13.0284 393.759 11.9375C394.56 10.8381 395.634 9.98579 396.98 9.38068C398.336 8.76704 399.848 8.46023 401.519 8.46023C403.206 8.46023 404.706 8.76278 406.019 9.3679C407.331 9.96449 408.371 10.7827 409.138 11.8224C409.914 12.8622 410.323 14.0426 410.365 15.3636H407.297ZM424.067 15.3636V17.9205H413.891V15.3636H424.067ZM416.857 10.6591H419.874V29.375C419.874 30.2273 419.997 30.8665 420.244 31.2926C420.5 31.7102 420.824 31.9915 421.216 32.1364C421.616 32.2727 422.038 32.3409 422.482 32.3409C422.814 32.3409 423.087 32.3239 423.3 32.2898C423.513 32.2472 423.683 32.2131 423.811 32.1875L424.425 34.8977C424.22 34.9744 423.935 35.0511 423.568 35.1278C423.202 35.2131 422.737 35.2557 422.175 35.2557C421.322 35.2557 420.487 35.0724 419.669 34.706C418.859 34.3395 418.186 33.7812 417.649 33.0312C417.121 32.2812 416.857 31.3352 416.857 30.1932V10.6591ZM436.371 35.4091C434.599 35.4091 433.043 34.9872 431.705 34.1435C430.376 33.2997 429.336 32.1193 428.586 30.6023C427.844 29.0852 427.474 27.3125 427.474 25.2841C427.474 23.2386 427.844 21.4531 428.586 19.9276C429.336 18.402 430.376 17.2173 431.705 16.3736C433.043 15.5298 434.599 15.108 436.371 15.108C438.144 15.108 439.695 15.5298 441.025 16.3736C442.363 17.2173 443.403 18.402 444.144 19.9276C444.894 21.4531 445.269 23.2386 445.269 25.2841C445.269 27.3125 444.894 29.0852 444.144 30.6023C443.403 32.1193 442.363 33.2997 441.025 34.1435C439.695 34.9872 438.144 35.4091 436.371 35.4091ZM436.371 32.6989C437.718 32.6989 438.826 32.3537 439.695 31.6634C440.565 30.973 441.208 30.0653 441.626 28.9403C442.043 27.8153 442.252 26.5966 442.252 25.2841C442.252 23.9716 442.043 22.7486 441.626 21.6151C441.208 20.4815 440.565 19.5653 439.695 18.8665C438.826 18.1676 437.718 17.8182 436.371 17.8182C435.025 17.8182 433.917 18.1676 433.048 18.8665C432.178 19.5653 431.535 20.4815 431.117 21.6151C430.7 22.7486 430.491 23.9716 430.491 25.2841C430.491 26.5966 430.7 27.8153 431.117 28.9403C431.535 30.0653 432.178 30.973 433.048 31.6634C433.917 32.3537 435.025 32.6989 436.371 32.6989ZM449.875 35V15.3636H452.789V18.3295H452.994C453.352 17.358 454 16.5696 454.937 15.9645C455.875 15.3594 456.931 15.0568 458.108 15.0568C458.329 15.0568 458.606 15.0611 458.939 15.0696C459.271 15.0781 459.522 15.0909 459.693 15.108V18.1761C459.591 18.1506 459.356 18.1122 458.99 18.0611C458.632 18.0014 458.252 17.9716 457.852 17.9716C456.897 17.9716 456.045 18.1719 455.295 18.5724C454.554 18.9645 453.966 19.5099 453.531 20.2088C453.105 20.8991 452.892 21.6875 452.892 22.5739V35H449.875ZM470.904 35.4091C469.012 35.4091 467.38 34.9915 466.008 34.1562C464.645 33.3125 463.592 32.1364 462.85 30.6278C462.118 29.1108 461.751 27.3466 461.751 25.3352C461.751 23.3239 462.118 21.5511 462.85 20.017C463.592 18.4744 464.623 17.2727 465.944 16.4119C467.274 15.5426 468.825 15.108 470.598 15.108C471.62 15.108 472.63 15.2784 473.627 15.6193C474.625 15.9602 475.532 16.5142 476.35 17.2812C477.169 18.0398 477.821 19.0455 478.306 20.2983C478.792 21.5511 479.035 23.0937 479.035 24.9261V26.2045H463.899V23.5966H475.967C475.967 22.4886 475.745 21.5 475.302 20.6307C474.868 19.7614 474.245 19.0753 473.436 18.5724C472.635 18.0696 471.689 17.8182 470.598 17.8182C469.396 17.8182 468.356 18.1165 467.478 18.7131C466.609 19.3011 465.94 20.0682 465.471 21.0142C465.002 21.9602 464.768 22.9744 464.768 24.0568V25.7955C464.768 27.2784 465.024 28.5355 465.535 29.5668C466.055 30.5895 466.775 31.3693 467.696 31.9062C468.616 32.4347 469.686 32.6989 470.904 32.6989C471.697 32.6989 472.413 32.5881 473.052 32.3665C473.7 32.1364 474.258 31.7955 474.727 31.3438C475.196 30.8835 475.558 30.3125 475.814 29.6307L478.728 30.4489C478.422 31.4375 477.906 32.3068 477.181 33.0568C476.457 33.7983 475.562 34.3778 474.497 34.7955C473.431 35.2045 472.234 35.4091 470.904 35.4091Z" fill="black"/>
<path d="M19.3374 1.99902C23.3015 3.10155 26.9132 5.87991 28.4108 9.27569C30.7012 14.7883 30.1726 21.7563 27.662 25.9018C25.5478 29.2975 22.2884 31.1057 18.5445 31.0616C12.7305 31.0175 8.01761 26.3869 7.97357 20.5655C7.97357 14.7442 12.5543 9.9372 18.5445 9.9372C19.5135 9.9372 20.9107 10.0716 22.4964 10.7331C22.4964 10.7331 21.3564 10.0579 18.4287 9.60435C10.016 8.50182 0.0893843 14.8765 2.37976 29.5621C5.55105 35.2071 11.6294 39.0439 18.5445 38.9998C28.7191 38.9557 37.0437 30.6206 36.9997 20.3891C36.9997 10.5987 29.0274 2.26363 19.3374 1.99902Z" fill="#553ACF"/>
<path d="M26.2528 9.80494C24.8433 6.85017 21.9363 4.51282 18.3686 3.5867C17.5757 3.36619 16.7389 3.27799 15.8139 3.23389C14.4485 3.23389 13.1271 3.4103 11.7617 3.7631C8.37019 4.77743 5.99172 6.76197 4.58226 8.3055C2.77638 10.3782 1.58715 12.5392 0.882418 14.7001C0.882418 14.7442 0.838372 14.7884 0.838372 14.8766C0.794327 15.053 0.618144 15.5822 0.618144 15.7145C0.574098 15.8027 0.574098 15.935 0.530052 16.0232C0.486007 16.1996 0.441961 16.376 0.397915 16.5524C0.397915 16.5965 0.397915 16.6406 0.353869 16.6847C-0.791319 22.3737 1.11112 27.4791 2.2563 29.3754C2.54274 29.8497 2.77795 30.2455 3.01368 30.6085C0.414988 16.4962 7.88569 9.76084 16.3865 9.58443C20.8351 9.49623 25.2837 11.3044 27.442 14.9206C27.3099 12.9361 27.1777 11.8336 26.2528 9.80494Z" fill="#553ACF"/>
</svg>
