<svg width="160" height="34" viewBox="0 0 160 34" fill="none" xmlns="http://www.w3.org/2000/svg">
<path d="M41.8695 26.1621C41.0617 26.0345 40.3328 25.8463 39.6708 25.6094V22.8034C41.2378 23.3136 42.7198 23.5626 44.1228 23.5626C45.3436 23.5626 46.2485 23.3257 46.8498 22.852C47.445 22.3782 47.7426 21.6919 47.7426 20.7809C47.7426 20.2707 47.6515 19.8455 47.4693 19.4933C47.2871 19.141 46.9834 18.8312 46.5583 18.5579C46.1331 18.2846 45.5561 18.0235 44.8152 17.7744L43.6247 17.3736C40.7155 16.3836 39.2578 14.5372 39.2578 11.8466C39.2578 10.644 39.519 9.6115 40.0474 8.74905C40.5758 7.8866 41.3593 7.22457 42.4039 6.76298C43.4486 6.30746 44.7423 6.07666 46.2728 6.07666C46.9652 6.07666 47.6576 6.11918 48.3379 6.21028C49.0181 6.30138 49.6194 6.42285 50.1356 6.58684V9.38071C49.0606 9.04058 47.8641 8.87052 46.5522 8.87052C43.8981 8.87052 42.5679 9.78156 42.5679 11.5976C42.5679 12.0895 42.653 12.4965 42.8169 12.8244C42.9809 13.1524 43.2603 13.45 43.643 13.7051C44.0317 13.9663 44.5661 14.2092 45.2525 14.44L46.4429 14.8409C47.9552 15.3511 49.1031 16.0556 49.8866 16.9606C50.6641 17.8655 51.0588 19.0438 51.0588 20.4954C51.0588 21.7162 50.7916 22.7669 50.251 23.6415C49.7105 24.5161 48.927 25.1903 47.8945 25.658C46.862 26.1256 45.6169 26.3564 44.1653 26.3564C43.4425 26.3564 42.6773 26.2957 41.8695 26.1621Z" fill="white"/>
<path d="M53.2637 9.57508C52.9661 9.29569 52.8203 8.90091 52.8203 8.39072C52.8203 7.88054 52.9661 7.48576 53.2637 7.2003C53.5613 6.92091 53.9986 6.77515 54.5756 6.77515C55.1526 6.77515 55.596 6.92091 55.8936 7.20637C56.1912 7.49183 56.343 7.88661 56.343 8.39072C56.343 8.90091 56.1972 9.29569 55.8996 9.57508C55.602 9.85447 55.1647 9.99416 54.5756 9.99416C53.9986 9.99416 53.5613 9.85447 53.2637 9.57508Z" fill="white"/>
<path d="M56.3129 11.5249H53.0635V26.1016H56.3129V11.5249Z" fill="white"/>
<path d="M59.1914 11.5247H61.8881L62.131 13.0857H62.3072C62.7688 12.5087 63.3154 12.0653 63.941 11.7555C64.5666 11.4458 65.2589 11.2939 66.0181 11.2939C67.2572 11.2939 68.2411 11.6827 68.9638 12.4601C69.6866 13.2375 70.051 14.4947 70.051 16.2196V26.0953H66.8199V16.4687C66.8199 15.6487 66.6559 15.0657 66.3279 14.7195C65.9999 14.3733 65.5323 14.1971 64.9249 14.1971C64.4633 14.1971 63.9956 14.3125 63.534 14.5373C63.0724 14.762 62.702 15.1082 62.4226 15.5758V26.1075H59.1914V11.5247Z" fill="white"/>
<path d="M76.7082 29.6485C77.9472 29.6485 78.8582 29.363 79.4474 28.7921C80.0365 28.2212 80.3281 27.2615 80.3281 25.9071V24.6256H80.1701C79.8604 25.1358 79.4292 25.5366 78.8886 25.8403C78.3481 26.144 77.7285 26.2958 77.0301 26.2958C76.1555 26.2958 75.3598 26.0529 74.6371 25.567C73.9143 25.0811 73.3313 24.2976 72.894 23.2226C72.4506 22.1475 72.2319 20.7688 72.2319 19.0925C72.2319 16.493 72.815 14.5434 73.9751 13.2558C75.1351 11.9621 76.8965 11.3122 79.2591 11.3062C79.9879 11.3062 80.7411 11.3669 81.5185 11.4944C82.2959 11.622 82.9761 11.786 83.5653 12.0046V25.3787C83.5653 27.7899 83.0187 29.5452 81.9376 30.6324C80.8504 31.7196 79.1984 32.2601 76.9815 32.2601C76.8661 32.2601 76.8236 32.2601 76.7082 32.254V29.6485ZM79.4595 23.2894C79.83 23.1072 80.1216 22.8521 80.3341 22.5363V13.9846C79.8908 13.8874 79.4413 13.8388 78.9979 13.8388C77.85 13.8388 76.9876 14.2154 76.4106 14.9746C75.8336 15.7338 75.5481 17.0032 75.5481 18.7949C75.5481 20.04 75.6574 21.0179 75.8822 21.7163C76.1069 22.4148 76.4167 22.9007 76.8114 23.1679C77.2062 23.4352 77.7103 23.5688 78.3177 23.5688C78.7064 23.5688 79.089 23.4777 79.4595 23.2894Z" fill="white"/>
<path d="M86.4502 26.1075V4.50977H89.6814V26.1014H86.4502V26.1075Z" fill="white"/>
<path d="M102.873 19.8517H95.2443C95.2808 20.8417 95.4265 21.613 95.6877 22.1779C95.9489 22.7366 96.3436 23.1375 96.8781 23.3804C97.4126 23.6234 98.1232 23.7388 99.016 23.7388C99.9331 23.7388 100.996 23.5687 102.199 23.2286V25.8585C101.549 26.0346 100.941 26.1682 100.377 26.2472C99.8117 26.3261 99.2286 26.3686 98.6334 26.3686C97.0846 26.3686 95.8213 26.1136 94.8435 25.5973C93.8656 25.081 93.1429 24.2732 92.6691 23.1679C92.1954 22.0564 91.9585 20.5926 91.9585 18.7645C91.9585 16.2682 92.4505 14.4036 93.4344 13.1585C94.4183 11.9135 95.8092 11.2939 97.613 11.2939C101.124 11.2939 102.879 13.8145 102.879 18.8556V19.8517H102.873ZM96.3436 13.8935C96.0096 14.1425 95.7424 14.5798 95.548 15.2054C95.3536 15.8309 95.2504 16.6873 95.2382 17.7866H99.8238C99.8177 16.6934 99.7206 15.8309 99.5444 15.2054C99.3683 14.5798 99.1193 14.1425 98.7974 13.8935C98.4755 13.6444 98.0746 13.5169 97.5948 13.5169C97.0968 13.5169 96.6777 13.6444 96.3436 13.8935Z" fill="white"/>
<path d="M107.184 26.1621C106.376 26.0345 105.647 25.8462 104.985 25.6094V22.8034C106.552 23.3135 108.034 23.5626 109.437 23.5626C110.658 23.5626 111.563 23.3257 112.164 22.8519C112.759 22.3782 113.057 21.6919 113.057 20.7808C113.057 20.2707 112.966 19.8455 112.784 19.4932C112.602 19.141 112.298 18.8312 111.873 18.5579C111.448 18.2846 110.871 18.0234 110.13 17.7744L108.939 17.3735C106.024 16.3775 104.572 14.5311 104.572 11.8405C104.572 10.6379 104.833 9.6054 105.362 8.74295C105.89 7.88049 106.674 7.21847 107.718 6.75688C108.763 6.30136 110.057 6.07056 111.587 6.07056C112.28 6.07056 112.972 6.11307 113.652 6.20418C114.333 6.29528 114.934 6.41675 115.45 6.58074V9.3746C114.375 9.03448 113.179 8.86442 111.867 8.86442C109.212 8.86442 107.882 9.77546 107.882 11.5915C107.882 12.0834 107.967 12.4904 108.131 12.8183C108.295 13.1463 108.575 13.4439 108.957 13.699C109.346 13.9602 109.881 14.2031 110.567 14.4339L111.757 14.8348C113.27 15.345 114.418 16.0495 115.201 16.9545C115.979 17.8594 116.373 19.0377 116.373 20.4893C116.373 21.7101 116.106 22.7608 115.565 23.6354C115.025 24.51 114.241 25.1842 113.209 25.6519C112.176 26.1195 110.931 26.3503 109.48 26.3503C108.751 26.3564 107.986 26.2957 107.184 26.1621Z" fill="white"/>
<path d="M125.884 23.4049V26.1016C125.18 26.2717 124.451 26.3567 123.692 26.3567C122.167 26.3567 121.013 25.9558 120.218 25.148C119.422 24.3403 119.027 23.0587 119.027 21.3095V14.1062H116.798V11.5249H119.027L119.604 6.32593H122.265V11.5249H125.763V14.1062H122.265V20.9208C122.265 21.5889 122.337 22.1173 122.489 22.5C122.641 22.8826 122.878 23.1559 123.2 23.3199C123.522 23.4839 123.953 23.5689 124.494 23.5689C124.822 23.5689 125.283 23.5142 125.884 23.4049Z" fill="white"/>
<path d="M128.338 24.5466C127.33 23.3319 126.826 21.4369 126.826 18.8738C126.826 13.8206 128.775 11.3 132.668 11.3C134.539 11.3 135.979 11.9196 136.993 13.1586C138.001 14.3976 138.511 16.2926 138.511 18.8495C138.511 23.8663 136.562 26.3747 132.675 26.3747C130.792 26.3747 129.346 25.7613 128.338 24.5466ZM134.053 23.4716C134.412 23.1861 134.691 22.6759 134.891 21.9471C135.092 21.2183 135.183 20.204 135.183 18.8981C135.183 17.5619 135.086 16.5173 134.891 15.7702C134.697 15.0232 134.418 14.5008 134.047 14.2093C133.677 13.9178 133.221 13.7659 132.668 13.7659C132.11 13.7659 131.642 13.9117 131.278 14.2032C130.913 14.4948 130.634 15.0049 130.439 15.7459C130.245 16.4869 130.148 17.5073 130.148 18.8192C130.148 20.1493 130.245 21.1818 130.439 21.9167C130.634 22.6577 130.913 23.1679 131.278 23.4594C131.636 23.7509 132.104 23.8967 132.675 23.8967C133.233 23.9028 133.689 23.757 134.053 23.4716Z" fill="white"/>
<path d="M140.765 11.5248H143.437L143.692 13.5291H143.85C144.208 12.782 144.688 12.2293 145.302 11.877C145.909 11.5248 146.601 11.3486 147.379 11.3486C147.689 11.3486 147.998 11.3729 148.302 11.4276V14.4462C147.998 14.3915 147.628 14.3672 147.178 14.3672C146.529 14.3672 145.915 14.5191 145.332 14.8167C144.755 15.1143 144.306 15.5273 143.996 16.0557V26.1014H140.765V11.5248Z" fill="white"/>
<path d="M159.994 19.8517H152.365C152.402 20.8417 152.548 21.613 152.809 22.1779C153.07 22.7366 153.465 23.1375 153.999 23.3804C154.534 23.6234 155.244 23.7388 156.137 23.7388C157.054 23.7388 158.117 23.5687 159.32 23.2286V25.8585C158.67 26.0346 158.062 26.1682 157.498 26.2472C156.933 26.3261 156.35 26.3686 155.754 26.3686C154.206 26.3686 152.942 26.1136 151.965 25.5973C150.987 25.081 150.264 24.2732 149.79 23.1679C149.316 22.0564 149.08 20.5926 149.08 18.7645C149.08 16.2682 149.572 14.4036 150.555 13.1585C151.539 11.9135 152.93 11.2939 154.734 11.2939C158.245 11.2939 160 13.8145 160 18.8556V19.8517H159.994ZM153.465 13.8935C153.131 14.1425 152.863 14.5798 152.669 15.2054C152.475 15.8309 152.371 16.6873 152.359 17.7866H156.945C156.939 16.6934 156.842 15.8309 156.666 15.2054C156.489 14.5798 156.24 14.1425 155.918 13.8935C155.597 13.6444 155.196 13.5169 154.716 13.5169C154.218 13.5169 153.799 13.6444 153.465 13.8935Z" fill="white"/>
<path d="M17.4926 0C21.0785 0.997325 24.3456 3.51059 25.7003 6.58235C27.7721 11.569 27.294 17.8721 25.0229 21.622C23.1105 24.6938 20.1621 26.3294 16.7754 26.2895C11.5161 26.2496 7.25294 22.0608 7.2131 16.795C7.2131 11.5291 11.3568 7.18074 16.7754 7.18074C17.652 7.18074 18.9158 7.30231 20.3502 7.9007C20.3502 7.9007 19.319 7.28993 16.6707 6.87965C9.06066 5.88232 0.0811979 11.6488 2.15303 24.9331C5.02173 30.0394 10.5201 33.5101 16.7754 33.4702C25.9792 33.4303 33.5095 25.8906 33.4697 16.6354C33.4697 7.77914 26.2581 0.239358 17.4926 0Z" fill="white"/>
<path d="M23.7478 7.06101C22.4728 4.38818 19.8432 2.27384 16.6159 1.43609C15.8987 1.23662 15.1417 1.15684 14.305 1.11694C13.0699 1.11694 11.8746 1.27652 10.6394 1.59566C7.57153 2.5132 5.42001 4.30839 4.14503 5.70464C2.51147 7.57961 1.43571 9.53437 0.798221 11.4891C0.798221 11.529 0.758378 11.5689 0.758378 11.6487C0.718535 11.8083 0.559163 12.287 0.559163 12.4067C0.51932 12.4865 0.51932 12.6061 0.479477 12.6859C0.439634 12.8455 0.39979 13.0051 0.359947 13.1646C0.359947 13.2045 0.359947 13.2444 0.320104 13.2843C-0.715814 18.4305 1.0051 23.0487 2.04102 24.7641C2.30012 25.1932 2.51289 25.5512 2.72613 25.8796C0.375391 13.1138 7.13326 7.02111 14.823 6.86154C18.8471 6.78176 22.8713 8.41737 24.8236 11.6886C24.704 9.89341 24.5845 8.89609 23.7478 7.06101Z" fill="white"/>
</svg>
