<svg width="24" height="24" viewBox="0 0 24 24" fill="none" xmlns="http://www.w3.org/2000/svg">
<path d="M12.5432 0C15.1145 0.71513 17.4571 2.51726 18.4285 4.71986C19.9141 8.29551 19.5713 12.8151 17.9428 15.504C16.5715 17.7066 14.4574 18.8794 12.029 18.8508C8.25781 18.8222 5.20089 15.8187 5.17233 12.0428C5.17233 8.2669 8.14354 5.14893 12.029 5.14893C12.6575 5.14893 13.5637 5.2361 14.5922 5.66518C14.5922 5.66518 13.8528 5.22723 11.9539 4.93304C6.49711 4.21791 0.058413 8.35272 1.54402 17.8782C3.60101 21.5397 7.54358 24.0284 12.029 23.9998C18.6285 23.9711 24.0281 18.5648 23.9995 11.9284C23.9995 5.57801 18.8285 0.171631 12.5432 0Z" fill="white"/>
<path d="M17.0283 5.06345C16.1141 3.1469 14.2285 1.63082 11.9144 1.03011C11.4001 0.887086 10.8573 0.829875 10.2574 0.80127C9.37172 0.80127 8.51464 0.915694 7.62899 1.14454C5.42915 1.80245 3.88641 3.08969 2.97219 4.09087C1.80084 5.43531 1.02947 6.83697 0.572362 8.23862C0.572362 8.26723 0.543793 8.29583 0.543793 8.35304C0.515224 8.46746 0.400946 8.81073 0.400946 8.89654C0.372377 8.95375 0.372377 9.03957 0.343808 9.09678C0.315238 9.2112 0.286669 9.32562 0.258099 9.44004C0.258099 9.46865 0.258099 9.49725 0.22953 9.52585C-0.513273 13.2159 0.720702 16.5274 1.46351 17.7574C1.6493 18.0651 1.80186 18.3218 1.95476 18.5573C0.269173 9.40359 5.11489 5.03484 10.6288 4.92042C13.5143 4.86321 16.3998 6.03602 17.7997 8.38165C17.714 7.09441 17.6283 6.37929 17.0283 5.06345Z" fill="white"/>
</svg>
